# xmcd
#
# Track frame offsets:
#	150
#	9985
#	25220
#	41580
#	58915
#	75500
#	92385
#	110620
#	123905
#	139965
#	162775
#	186560
#	211470
#
# Disc length: 3174 seconds
#
# Revision: 0
# Processed by: cddbd v1.5.2PL0 Copyright (c) Steve Scherf et al.
# Submitted via: EasyCDDAExtractor 16.0.6.1
#
DISCID=ab0c640d
DTITLE=Big Buddy Playing with Friends - Bad Luck Hoodoo
DYEAR=2015
DGENRE=Blues
TTITLE0=My Name Is...
TTITLE1=Däng!
TTITLE2=Make up Your Mind
TTITLE3=Home Bound Train
TTITLE4=Winners and Losers
TTITLE5=Ballad of Bob John Glade
TTITLE6=Bad Luck Hoodoo
TTITLE7=She's Kinda Hot
TTITLE8=She Gave the Dog a Bone
TTITLE9=A Bad Case of Blues
TTITLE10=Cruel Lover
TTITLE11=Nothing's Ghanged But Everything
TTITLE12=House Cleaning Blues
EXTD=
EXTT0=
EXTT1=
EXTT2=
EXTT3=
EXTT4=
EXTT5=
EXTT6=
EXTT7=
EXTT8=
EXTT9=
EXTT10=
EXTT11=
EXTT12=
PLAYORDER=
